<?xml version="1.0" encoding="UTF-8"?><svg id="_图层_1" xmlns="http://www.w3.org/2000/svg" width="1024" height="1024" xmlns:xlink="http://www.w3.org/1999/xlink" viewBox="0 0 1024 1024"><defs><style>.cls-1{fill:url(#_未命名的渐变_5);}.cls-2{fill:url(#_未命名的渐变_8);}.cls-3{fill:url(#_未命名的渐变_9);}.cls-4{fill:url(#_未命名的渐变_4);}.cls-5{fill:rgba(214,248,248,.2);fill-rule:evenodd;}.cls-6{fill:url(#_未命名的渐变_6);}.cls-7{fill:url(#_未命名的渐变_2);}.cls-8{fill:url(#_未命名的渐变_3);}.cls-9{fill:url(#_未命名的渐变_7);}</style><radialGradient id="_未命名的渐变_9" cx="19.3" cy="1028.2" fx="19.3" fy="1028.2" r="16.5" gradientTransform="translate(28076.4 31378) rotate(-42.6) scale(30.4 -40.1)" gradientUnits="userSpaceOnUse"><stop offset=".8" stop-color="#001aff"/><stop offset="1" stop-color="#8aceff"/></radialGradient><radialGradient id="_未命名的渐变_2" cx="44.1" cy="1041.1" fx="44.1" fy="1041.1" r="16.5" gradientTransform="translate(11786.9 20679.4) rotate(-30.5) scale(16.8 -22.1)" gradientUnits="userSpaceOnUse"><stop offset=".7" stop-color="#fa00ff" stop-opacity="0"/><stop offset="1" stop-color="#ff00d6" stop-opacity=".4"/></radialGradient><radialGradient id="_未命名的渐变_3" cx="-10" cy="1035.5" fx="-10" fy="1035.5" r="16.5" gradientTransform="translate(-36982.9 33064.8) rotate(49.4) scale(47.9 -47.9)" gradientUnits="userSpaceOnUse"><stop offset="0" stop-color="#8dfdfd"/><stop offset=".3" stop-color="#87fbfb"/><stop offset=".5" stop-color="#74d6f4"/><stop offset=".9" stop-color="#0038ff"/></radialGradient><radialGradient id="_未命名的渐变_4" cx="-18.4" cy="1013.8" fx="-18.4" fy="1013.8" r="16.5" gradientTransform="translate(-22580.1 -23533.6) rotate(137.2) scale(32.8 -32.8)" gradientUnits="userSpaceOnUse"><stop offset=".3" stop-color="#0500ff" stop-opacity="0"/><stop offset="1" stop-color="#0500ff" stop-opacity=".2"/></radialGradient><radialGradient id="_未命名的渐变_5" cx="-13.1" cy="1030.6" fx="-13.1" fy="1030.6" r="16.5" gradientTransform="translate(-50395.4 14524.8) rotate(75.2) scale(51.1 -51.1)" gradientUnits="userSpaceOnUse"><stop offset=".4" stop-color="#ff00e5" stop-opacity="0"/><stop offset=".8" stop-color="#ff00f5" stop-opacity=".6"/><stop offset=".9" stop-color="#be46ff" stop-opacity=".9"/></radialGradient><linearGradient id="_未命名的渐变_6" x1="-86.3" y1="1632.3" x2="1081.7" y2="1616.3" gradientTransform="translate(214.3 2139) scale(1 -1)" gradientUnits="userSpaceOnUse"><stop offset=".4" stop-color="#fe62ee" stop-opacity="0"/><stop offset=".8" stop-color="#fd3af5" stop-opacity=".5"/></linearGradient><radialGradient id="_未命名的渐变_7" cx="-26.5" cy="1031.2" fx="-26.5" fy="1031.2" r="16.5" gradientTransform="translate(-34980.5 5383.2) rotate(83.1) scale(22.9 -34.6)" gradientUnits="userSpaceOnUse"><stop offset="0" stop-color="#00b2ff"/><stop offset=".6" stop-color="#74c5ff"/><stop offset="1" stop-color="#9fd7ff"/></radialGradient><linearGradient id="_未命名的渐变_8" x1="247.8" y1="1819.2" x2="318.7" y2="1387.2" gradientTransform="translate(214.3 2139) scale(1 -1)" gradientUnits="userSpaceOnUse"><stop offset="0" stop-color="#0038ff"/><stop offset=".7" stop-color="#48bff1" stop-opacity=".6"/><stop offset="1" stop-color="#74c5ff" stop-opacity="0"/></linearGradient></defs><path class="cls-3" d="m1010,443.5c0,156.8-167.9,284-374.9,284s-374.9-127.1-374.9-284,167.9-284,374.9-284,374.9,127.1,374.9,284Z"/><path class="cls-7" d="m1010,443.5c0,156.8-167.9,284-374.9,284s-374.9-127.1-374.9-284,167.9-284,374.9-284,374.9,127.1,374.9,284Z"/><path class="cls-8" d="m1024,512c0,282.8-229.2,512-512,512S0,794.8,0,512,229.2,0,512,0c132.9,60.2,271.9,284,330.2,353.9,58.2,69.9,208.9,158.1,135-26.8,31.5,50,46.8,132.9,46.8,184.9Z"/><path class="cls-4" d="m1024,512c0,282.8-229.2,512-512,512S0,794.8,0,512,229.2,0,512,0c132.9,60.2,271.9,284,330.2,353.9,58.2,69.9,208.9,158.1,135-26.8,31.5,50,46.8,132.9,46.8,184.9Z"/><path class="cls-1" d="m1024,512c0,282.8-229.2,512-512,512S0,794.8,0,512,229.2,0,512,0c132.9,60.2,271.9,284,330.2,353.9,58.2,69.9,208.9,158.1,135-26.8,31.5,50,46.8,132.9,46.8,184.9Z"/><path class="cls-6" d="m1024,512c0,282.8-229.2,512-512,512S0,794.8,0,512,229.2,0,512,0c132.9,60.2,271.9,284,330.2,353.9,58.2,69.9,208.9,158.1,135-26.8,31.5,50,46.8,132.9,46.8,184.9Z"/><path class="cls-9" d="m869.6,589.3c27.4,128.2-107.5,265.7-301.4,307.1-193.8,41.4-373.1-29-400.5-157.2-27.4-128.2,107.5-265.7,301.4-307.1,193.8-41.4,373.1,29,400.5,157.2Z"/><path class="cls-2" d="m869.6,589.3c27.4,128.2-107.5,265.7-301.4,307.1-193.8,41.4-373.1-29-400.5-157.2-27.4-128.2,107.5-265.7,301.4-307.1,193.8-41.4,373.1,29,400.5,157.2Z"/><path class="cls-5" d="m783.9,757.8c50.8-51.7,72.4-110,61.1-163.2-11.4-53.2-54.9-97.6-122.4-124-67.3-26.4-155.4-33.6-248.2-13.8-92.8,19.8-170.3,62.4-220.9,114-50.8,51.7-72.4,110-61.1,163.2,11.4,53.2,54.9,97.5,122.4,124,67.3,26.4,155.4,33.6,248.2,13.8,92.8-19.8,170.3-62.4,220.9-114Zm-215.7,138.6c193.8-41.4,328.7-178.9,301.4-307.1-27.4-128.2-206.7-198.6-400.5-157.2-193.8,41.4-328.7,178.9-301.4,307.1,27.4,128.2,206.7,198.6,400.5,157.3Z"/></svg>